<svg width="381" height="377" viewBox="0 0 381 377" fill="none" xmlns="http://www.w3.org/2000/svg">
<path fill-rule="evenodd" clip-rule="evenodd" d="M127 27.61C127 12.3614 114.491 0 99.06 0H27.94C12.5092 0 0 12.3614 0 27.61V98.7928C0 114.041 12.5092 126.402 27.94 126.402H99.06C114.491 126.402 127 138.764 127 154.012V223.39C127 238.638 139.509 251 154.94 251H226.06C241.49 251 254 238.638 254 223.39V152.206C254 136.958 241.49 124.597 226.06 124.597H154.94C139.509 124.597 127 112.236 127 96.987V27.61Z" fill="black"/>
<path fill-rule="evenodd" clip-rule="evenodd" d="M254 153.11C254 137.861 241.491 125.5 226.06 125.5H154.94C139.509 125.5 127 137.861 127 153.11V224.293C127 239.541 139.509 251.902 154.94 251.902H226.06C241.491 251.902 254 264.264 254 279.512V348.89C254 364.138 266.509 376.5 281.94 376.5H353.06C368.49 376.5 381 364.138 381 348.89V277.706C381 262.458 368.49 250.097 353.06 250.097H281.94C266.509 250.097 254 237.736 254 222.487V153.11Z" fill="black"/>
<path d="M321.614 277.273V350H312.807V277.273H321.614Z" fill="white"/>
<path d="M170.807 225V152.273H179.614V217.188H213.42V225H170.807Z" fill="white"/>
<path d="M41.7898 100H32.5568L59.2614 27.2727H68.3523L95.0568 100H85.8239L64.0909 38.7784H63.5227L41.7898 100ZM45.1989 71.5909H82.4148V79.4034H45.1989V71.5909Z" fill="white"/>
</svg>
